<svg width="80" height="80" viewBox="0 0 80 80" fill="none" xmlns="http://www.w3.org/2000/svg">
<g clip-path="url(#clip0_3474_718)">
<path d="M58.6667 58.6667H53.3333V53.3334H58.6667V58.6667Z" fill="#96A9B2"/>
<path d="M42.6667 58.6667H48V53.3334H42.6667V58.6667Z" fill="#96A9B2"/>
<path d="M69.3333 58.6667H64V53.3334H69.3333V58.6667Z" fill="#96A9B2"/>
<path fill-rule="evenodd" clip-rule="evenodd" d="M16 32V18.6667C16 16.2153 16.4828 13.788 17.4209 11.5232C18.359 9.2585 19.734 7.2007 21.4673 5.46734C23.2007 3.73398 25.2585 2.359 27.5232 1.42092C29.788 0.482827 32.2153 0 34.6667 0C37.118 0 39.5453 0.482827 41.8101 1.42092C44.0748 2.359 46.1326 3.73398 47.866 5.46734C49.5994 7.2007 50.9743 9.2585 51.9124 11.5232C52.8505 13.788 53.3333 16.2153 53.3333 18.6667V32H61.3333C63.4551 32 65.4899 32.8429 66.9902 34.3431C68.4905 35.8434 69.3333 37.8783 69.3333 40V42.9333C72.3474 43.5454 75.0573 45.1806 77.0037 47.562C78.9501 49.9433 80.0134 52.9244 80.0134 56C80.0134 59.0756 78.9501 62.0567 77.0037 64.438C75.0573 66.8194 72.3474 68.4546 69.3333 69.0667V72C69.3333 74.1217 68.4905 76.1566 66.9902 77.6569C65.4899 79.1572 63.4551 80 61.3333 80H8C5.87827 80 3.84344 79.1572 2.34315 77.6569C0.842855 76.1566 0 74.1217 0 72L0 40C0 37.8783 0.842855 35.8434 2.34315 34.3431C3.84344 32.8429 5.87827 32 8 32H16ZM21.3333 18.6667C21.3333 15.1304 22.7381 11.7391 25.2386 9.23858C27.7391 6.73809 31.1304 5.33333 34.6667 5.33333C38.2029 5.33333 41.5943 6.73809 44.0948 9.23858C46.5952 11.7391 48 15.1304 48 18.6667V32H21.3333V18.6667ZM45.3333 48C43.2116 48 41.1768 48.8429 39.6765 50.3431C38.1762 51.8434 37.3333 53.8783 37.3333 56C37.3333 58.1217 38.1762 60.1566 39.6765 61.6569C41.1768 63.1571 43.2116 64 45.3333 64H66.6667C68.7884 64 70.8232 63.1571 72.3235 61.6569C73.8238 60.1566 74.6667 58.1217 74.6667 56C74.6667 53.8783 73.8238 51.8434 72.3235 50.3431C70.8232 48.8429 68.7884 48 66.6667 48H45.3333Z" fill="#DCE2E2"/>
</g>
<defs>
<clipPath id="clip0_3474_718">
<rect width="80" height="80" fill="white"/>
</clipPath>
</defs>
</svg>
