<svg width="17" height="17" viewBox="0 0 17 17" fill="none" xmlns="http://www.w3.org/2000/svg">
<path d="M7.83337 3.16663H3.16671C2.81309 3.16663 2.47395 3.3071 2.2239 3.55715C1.97385 3.8072 1.83337 4.14634 1.83337 4.49996V13.8333C1.83337 14.1869 1.97385 14.5261 2.2239 14.7761C2.47395 15.0262 2.81309 15.1666 3.16671 15.1666H12.5C12.8537 15.1666 13.1928 15.0262 13.4428 14.7761C13.6929 14.5261 13.8334 14.1869 13.8334 13.8333V9.16663" stroke="#737373" stroke-linecap="round" stroke-linejoin="round"/>
<path d="M12.8334 2.16665C13.0986 1.90144 13.4583 1.75244 13.8334 1.75244C14.2084 1.75244 14.5682 1.90144 14.8334 2.16665C15.0986 2.43187 15.2476 2.79158 15.2476 3.16665C15.2476 3.54173 15.0986 3.90144 14.8334 4.16665L8.50004 10.5L5.83337 11.1667L6.50004 8.49999L12.8334 2.16665Z" stroke="#737373" stroke-linecap="round" stroke-linejoin="round"/>
</svg>
