<svg width="141" height="95" viewBox="0 0 141 95" fill="none" xmlns="http://www.w3.org/2000/svg">
<g clip-path="url(#clip0_3406_153)">
<path d="M120.459 76.111C120.913 74.8817 68.6813 35.4425 68.6813 35.4425C62.1423 30.6169 58.7031 30.541 52.2367 35.4425C52.2367 35.4425 0.0807178 74.8498 0.519702 76.0623L0.509155 76.0712C0.514546 76.0817 0.523218 76.089 0.530483 76.0986C0.972734 77.3042 1.61614 78.4261 2.43337 79.4166C2.77861 79.8352 3.19462 80.1859 3.5947 80.5503L3.57525 80.5653C3.60712 80.5937 3.64955 80.6068 3.68142 80.6352C5.37712 82.1478 7.51556 83.1275 9.89119 83.4071C9.92845 83.4116 9.95845 83.431 9.99572 83.4355H10.1392C10.5003 83.4699 10.8437 83.5566 11.2135 83.5566H109.82C114.676 83.5566 118.789 80.5032 120.423 76.2228C120.443 76.1909 120.473 76.168 120.491 76.1351L120.459 76.111Z" fill="#96A9B2"/>
<path d="M60.5311 30.9163L0.784912 75.726V12.2458C0.784912 6.05825 5.79983 1.04333 11.9873 1.04333H109.075C115.262 1.04333 120.277 6.05825 120.277 12.2458V75.726L60.5311 30.9163Z" fill="#B9C5C6"/>
<path d="M1.48193 8.35066L52.4925 48.4168C58.9308 53.1678 62.317 53.2428 68.6838 48.4168L119.614 8.41418C118.731 6.81246 117.408 5.54707 115.895 4.53809L116.595 3.98918C114.886 2.4327 112.7 1.42371 110.274 1.16309L10.7925 1.1666C8.37326 1.42371 6.1842 2.43621 4.47795 3.98918L5.17334 4.53129C3.67803 5.52621 2.3674 6.7698 1.48193 8.35066Z" fill="#EDECE6"/>
<path d="M1.46537 8.43453C1.01748 9.64508 52.4447 48.4763 52.4447 48.4763C58.883 53.2273 62.2693 53.3023 68.6361 48.4763C68.6361 48.4763 119.988 9.67648 119.556 8.48258L119.566 8.4739C119.561 8.46336 119.553 8.45656 119.546 8.44695C119.11 7.25992 118.477 6.15528 117.672 5.18C117.332 4.76773 116.922 4.42273 116.529 4.06367L116.548 4.04891C116.517 4.02102 116.475 4.00789 116.443 3.98C114.774 2.49078 112.668 1.52609 110.329 1.2507C110.293 1.24625 110.263 1.22727 110.227 1.22281H110.086C109.73 1.18883 109.392 1.10352 109.028 1.10352H11.9401C7.15927 1.10352 3.1088 4.11008 1.50029 8.32437C1.48107 8.35578 1.45154 8.37851 1.43396 8.41062L1.46537 8.43453Z" fill="#DCE2E2"/>
</g>
<rect x="100.5" y="54.5" width="40" height="40" rx="20" fill="#797EF6"/>
<path d="M128.5 68.5L117.5 79.5L112.5 74.5" stroke="white" stroke-width="2" stroke-linecap="round" stroke-linejoin="round"/>
<defs>
<clipPath id="clip0_3406_153">
<rect width="120" height="84" fill="white" transform="translate(0.5 0.5)"/>
</clipPath>
</defs>
</svg>
