<svg width="58" height="48" viewBox="0 0 58 48" fill="none" xmlns="http://www.w3.org/2000/svg">
<path d="M0.921875 37.1958V47.1085H3.15348V37.1958H0.921875Z" fill="#1D1D1D"/>
<path d="M12.4936 41.458C12.3886 41.0387 12.2122 40.6761 11.9644 40.3709C11.7166 40.0657 11.3806 39.8298 10.9564 39.6632C10.5315 39.4966 10.0002 39.4126 9.36113 39.4126C8.73183 39.4126 8.13123 39.4581 7.55863 39.5484C6.98673 39.6394 6.51913 39.7374 6.15723 39.8417V47.1084H8.28873V41.3012C8.42173 41.2823 8.57433 41.2655 8.74653 41.2508C8.91803 41.2361 9.07973 41.2291 9.23233 41.2291C9.72793 41.2291 10.0667 41.3726 10.248 41.6589C10.4293 41.9445 10.5196 42.431 10.5196 43.1177V47.1084H12.6511V42.8601C12.6511 42.3449 12.5986 41.878 12.4936 41.458Z" fill="#1D1D1D"/>
<path d="M17.5714 39.2124C17.5714 39.0122 17.5931 38.8267 17.6358 38.6545C17.6785 38.483 17.7506 38.3353 17.85 38.2114C17.9508 38.0875 18.0887 37.9895 18.2651 37.9181C18.4415 37.8467 18.6585 37.811 18.9161 37.811C19.1065 37.811 19.3137 37.832 19.5384 37.8747C19.7624 37.9181 19.9696 37.9825 20.1607 38.0679L20.5751 36.3662C20.3938 36.2899 20.1369 36.2108 19.803 36.1303C19.4691 36.0491 19.1023 36.0085 18.7012 36.0085C17.6239 36.0085 16.8105 36.2948 16.2624 36.8667C15.7143 37.4386 15.4399 38.2114 15.4399 39.1837V47.1084H17.5714V41.3579H20.2034V39.5848H17.5714V39.2124Z" fill="#1D1D1D"/>
<path d="M28.9855 41.7157C28.8049 41.2292 28.5515 40.8148 28.2274 40.4711C27.9033 40.1281 27.5148 39.8614 27.0619 39.6703C26.609 39.4799 26.1106 39.384 25.5674 39.384C25.0333 39.384 24.5398 39.4799 24.0869 39.6703C23.634 39.8614 23.2427 40.1281 22.9137 40.4711C22.5847 40.8148 22.3271 41.2292 22.1416 41.7157C21.9554 42.2022 21.8623 42.7412 21.8623 43.332C21.8623 43.9235 21.9533 44.4646 22.1339 44.9553C22.3152 45.4467 22.5679 45.866 22.8927 46.2146C23.2168 46.5625 23.6053 46.832 24.0582 47.0224C24.5111 47.2135 25.0137 47.3087 25.5674 47.3087C26.1295 47.3087 26.6377 47.2135 27.0906 47.0224C27.5435 46.832 27.932 46.5625 28.2561 46.2146C28.5802 45.866 28.8287 45.4467 29.0002 44.9553C29.1717 44.4646 29.2578 43.9235 29.2578 43.332C29.2578 42.7412 29.1668 42.2022 28.9855 41.7157ZM26.6902 44.8986C26.4277 45.2843 26.0532 45.4775 25.5674 45.4775C25.0809 45.4775 24.7043 45.2843 24.4369 44.8986C24.1702 44.5122 24.0365 43.99 24.0365 43.332C24.0365 42.674 24.1702 42.1567 24.4369 41.7801C24.7043 41.4035 25.0809 41.2152 25.5674 41.2152C26.0532 41.2152 26.4277 41.4035 26.6902 41.7801C26.952 42.1567 27.0836 42.674 27.0836 43.332C27.0836 43.99 26.952 44.5122 26.6902 44.8986Z" fill="#1D1D1D"/>
<path d="M38.1046 41.458C38.0045 41.0387 37.833 40.6761 37.5901 40.3709C37.3465 40.0657 37.0224 39.8298 36.6171 39.6632C36.2118 39.4966 35.7036 39.4126 35.0939 39.4126C34.8839 39.4126 34.6669 39.4343 34.4429 39.477C34.2189 39.5197 34.0348 39.5652 33.892 39.6128V36.0085L31.7612 36.3515V47.1084H33.892V41.3866C34.0257 41.3488 34.1755 41.3131 34.3428 41.2795C34.5094 41.2459 34.6879 41.2291 34.879 41.2291C35.3557 41.2291 35.6826 41.3726 35.859 41.6589C36.0354 41.9445 36.1236 42.431 36.1236 43.1177V47.1084H38.2551V42.8601C38.2551 42.3449 38.2047 41.878 38.1046 41.458Z" fill="#1D1D1D"/>
<path d="M47.8092 41.7157C47.6286 41.2292 47.3752 40.8148 47.0511 40.4711C46.727 40.1281 46.3385 39.8614 45.8856 39.6703C45.4327 39.4799 44.9343 39.384 44.3911 39.384C43.857 39.384 43.3635 39.4799 42.9106 39.6703C42.4577 39.8614 42.0664 40.1281 41.7374 40.4711C41.4084 40.8148 41.1508 41.2292 40.9653 41.7157C40.7791 42.2022 40.686 42.7412 40.686 43.332C40.686 43.9235 40.777 44.4646 40.9576 44.9553C41.1389 45.4467 41.3916 45.866 41.7164 46.2146C42.0405 46.5625 42.429 46.832 42.8819 47.0224C43.3348 47.2135 43.8374 47.3087 44.3911 47.3087C44.9532 47.3087 45.4614 47.2135 45.9143 47.0224C46.3672 46.832 46.7557 46.5625 47.0798 46.2146C47.4039 45.866 47.6524 45.4467 47.8239 44.9553C47.9954 44.4646 48.0815 43.9235 48.0815 43.332C48.0815 42.7412 47.9905 42.2022 47.8092 41.7157ZM45.5139 44.8986C45.2514 45.2843 44.8769 45.4775 44.3911 45.4775C43.9046 45.4775 43.528 45.2843 43.2606 44.8986C42.9939 44.5122 42.8602 43.99 42.8602 43.332C42.8602 42.674 42.9939 42.1567 43.2606 41.7801C43.528 41.4035 43.9046 41.2152 44.3911 41.2152C44.8769 41.2152 45.2514 41.4035 45.5139 41.7801C45.7757 42.1567 45.9066 42.674 45.9066 43.332C45.9066 43.99 45.7757 44.5122 45.5139 44.8986Z" fill="#1D1D1D"/>
<path d="M57.3645 41.7373C57.2217 41.2557 57.0117 40.8427 56.7352 40.4997C56.4587 40.1567 56.1157 39.8921 55.7055 39.7059C55.2953 39.5197 54.8235 39.4266 54.2894 39.4266C53.994 39.4266 53.7175 39.456 53.4599 39.5127C53.2023 39.5701 52.9545 39.6513 52.7158 39.7563V36.0085L50.585 36.3515V46.8648C50.7754 46.9222 50.9945 46.9775 51.243 47.0293C51.4908 47.0825 51.7505 47.1273 52.0221 47.1651C52.2937 47.2036 52.5702 47.2344 52.8516 47.2582C53.133 47.282 53.4025 47.2939 53.6601 47.2939C54.2796 47.2939 54.8333 47.2015 55.3191 47.0153C55.8056 46.8291 56.2151 46.5645 56.5497 46.2215C56.8829 45.8778 57.1384 45.4634 57.3148 44.9769C57.4912 44.4904 57.5794 43.9472 57.5794 43.3466C57.5794 42.7551 57.5073 42.2189 57.3645 41.7373ZM54.9614 44.8768C54.666 45.2772 54.2271 45.4774 53.6454 45.4774C53.455 45.4774 53.2786 45.4704 53.1162 45.4564C52.9545 45.4417 52.8208 45.4256 52.7158 45.406V41.5301C52.8495 41.444 53.0238 41.3726 53.238 41.3152C53.4529 41.2578 53.6692 41.2291 53.889 41.2291C54.8998 41.2291 55.4052 41.9158 55.4052 43.2892C55.4052 43.9472 55.2568 44.4764 54.9614 44.8768Z" fill="#1D1D1D"/>
<path d="M44.329 5.36741C44.3283 2.78371 42.2332 0.690706 39.6502 0.691406L17.7339 0.699807C15.1509 0.700507 13.0572 2.79561 13.0586 5.37861L13.0663 27.2949C13.067 29.8779 15.1621 31.9709 17.7458 31.9702L39.6614 31.9625C42.2444 31.9611 44.3381 29.8667 44.3374 27.283L44.329 5.36741ZM30.1939 7.35261H33.1871V10.3451H30.1939V7.35261ZM18.2225 7.35261H21.2157V10.3451H18.2225V7.35261ZM27.2014 25.309H24.2082V22.3165H27.2014V25.309ZM39.1728 25.309H36.1796V22.3158H39.1728V25.309ZM39.1728 19.324H33.1871V25.309H30.1939V16.3308H27.2014V19.3415H24.2082V16.3301H21.2157V25.309H18.2232V13.3376H24.2082V7.35261H27.2014V13.3383H33.1871V16.3308H36.1796V7.35261H39.1728V19.324Z" fill="#1AA7EC"/>
</svg>
